<svg width="800" height="626" viewBox="0 0 800 626" fill="none" xmlns="http://www.w3.org/2000/svg">
<path d="M798.041 85.4391C794.716 68.636 787.219 52.7547 776.281 39.4031C774.059 36.6 771.736 34.1063 769.195 31.5766C749.736 12.0141 722.667 0.793762 694.928 0.793762H105.069C77.0203 0.793762 50.6406 11.7313 30.7891 31.5875C28.2766 34.0938 25.9469 36.6125 23.6406 39.5047C12.75 52.8 5.28594 68.6594 2.04062 85.4859C0.684375 92.0938 0 98.9406 0 105.867V520.144C0 534.556 2.92813 548.591 8.73281 561.933C13.7563 573.781 21.3781 585.014 30.7828 594.414C33.1516 596.772 35.5047 598.947 38.0172 601.067C56.8203 616.639 80.6297 625.208 105.069 625.208H694.928C719.525 625.208 743.311 616.606 762.064 600.895C764.57 598.867 766.894 596.738 769.217 594.414C778.308 585.333 785.533 574.898 790.727 563.392L791.411 561.752C797.108 548.663 800 534.673 800 520.145V105.867C800 99.0313 799.341 92.1391 798.041 85.4391ZM54.4109 67.85C55.8969 65.675 57.7937 63.4422 60.2141 61.0031C72.2281 48.9953 88.1609 42.3875 105.067 42.3875H694.927C711.981 42.3875 727.919 49.0063 739.8 61.0266C741.852 63.1 743.811 65.4016 745.52 67.7016L750.031 73.7641L435.187 348.164C425.481 356.673 412.984 361.356 399.995 361.356C387.134 361.356 374.648 356.684 364.827 348.175L50.2969 73.8422L54.4109 67.85ZM41.8047 523.802C41.6344 522.673 41.5953 521.42 41.5953 520.144V114.445L285.923 327.588L44.0609 538.464L41.8047 523.802ZM726.405 575.25C716.948 580.706 706.058 583.6 694.928 583.6H105.069C93.9328 583.6 83.0469 580.706 73.5969 575.25L63.7094 569.519L313.609 351.739L340.997 375.561C357.425 389.823 378.375 397.686 399.998 397.686C421.702 397.686 442.686 389.823 459.103 375.561L486.48 351.728L736.294 569.531L726.405 575.25ZM758.394 520.144C758.394 521.398 758.37 522.639 758.213 523.744L756.047 538.544L514.081 327.702L758.394 114.548V520.144Z" fill="white" stroke="white" stroke-width="1.5625"/>
</svg>
