<svg width="1027" height="1024" viewBox="0 0 1027 1024" fill="none" xmlns="http://www.w3.org/2000/svg">
<g clip-path="url(#clip0_112_6)">
<path d="M462.147 464.941C462.222 449.194 467.436 433.902 476.999 421.39C489.886 404.802 504.585 389.706 520.823 376.381C535.474 363.781 548.906 349.83 560.943 334.713C568.512 324.093 572.433 311.305 572.119 298.268C572.299 290.286 570.869 282.349 567.912 274.932C564.956 267.515 560.535 260.77 554.914 255.1C549.292 249.43 542.585 244.952 535.194 241.933C527.802 238.913 519.878 237.415 511.894 237.527C495.96 237.372 480.559 243.265 468.799 254.018C455.098 267.219 445.107 283.787 439.825 302.064L374.468 273.547C382.78 241.722 401.143 213.431 426.827 192.883C452.167 173.829 483.207 163.907 514.901 164.729C539.009 164.478 562.827 170.008 584.358 180.856C604.881 191.162 622.214 206.857 634.5 226.26C646.956 246.016 653.413 268.962 653.086 292.315C653.352 313.348 647.689 334.03 636.747 351.993C622.915 373.131 606.156 392.201 586.97 408.634C572.322 421.061 558.543 434.475 545.727 448.784C538.376 457.202 534.292 467.979 534.216 479.154C534.423 486.003 535.443 492.803 537.254 499.411H470.439C465.228 488.651 462.4 476.894 462.147 464.941ZM506.701 676.562C499.072 676.755 491.483 675.392 484.398 672.557C477.313 669.722 470.879 665.473 465.488 660.071C460.005 654.716 455.688 648.285 452.809 641.183C449.929 634.08 448.549 626.459 448.754 618.798C448.574 611.081 449.964 603.407 452.841 596.244C455.717 589.081 460.02 582.578 465.488 577.129C470.828 571.633 477.243 567.296 484.334 564.39C491.425 561.485 499.04 560.073 506.701 560.243C514.409 560.079 522.069 561.485 529.216 564.377C536.363 567.269 542.846 571.586 548.27 577.064C553.694 582.542 557.947 589.068 560.767 596.243C563.588 603.418 564.919 611.092 564.678 618.798C564.882 626.456 563.504 634.074 560.63 641.176C557.756 648.278 553.447 654.71 547.974 660.071C542.57 665.472 536.126 669.719 529.031 672.554C521.936 675.389 514.339 676.752 506.701 676.562Z" fill="white"/>
<path d="M44.7667 1024C38.1942 1023.99 31.7035 1022.54 25.7548 1019.75C18.0283 1016.19 11.4909 1010.47 6.92397 1003.29C2.35699 996.115 -0.0464955 987.773 0.000681396 979.264V108.483C0.0328354 79.7215 11.4726 52.1471 31.8102 31.8095C52.1478 11.4719 79.7222 0.0321537 108.484 0L919.071 0C947.832 0.032154 975.407 11.4719 995.745 31.8095C1016.08 52.1471 1027.52 79.7215 1027.55 108.483V728.526C1027.51 757.282 1016.07 784.849 995.734 805.18C975.397 825.511 947.827 836.947 919.071 836.979H312.512C294.339 836.985 276.744 843.369 262.796 855.019L73.2845 1013.55C65.2956 1020.27 55.2029 1023.97 44.7667 1024ZM108.484 60.7409C95.8268 60.7569 83.6927 65.7921 74.7427 74.742C65.7928 83.692 60.7576 95.8261 60.7416 108.483V944.824L223.831 808.431C248.714 787.654 280.096 776.261 312.512 776.238H919.071C931.725 776.23 943.859 771.202 952.81 762.256C961.761 753.311 966.797 741.18 966.813 728.526V108.483C966.797 95.8261 961.762 83.692 952.812 74.742C943.862 65.7921 931.728 60.7569 919.071 60.7409H108.484Z" fill="white"/>
</g>
<defs>
<clipPath id="clip0_112_6">
<rect width="1027" height="1024" fill="white"/>
</clipPath>
</defs>
</svg>
