<svg width="370" height="108" viewBox="0 0 370 108" fill="none" xmlns="http://www.w3.org/2000/svg">
<path fill-rule="evenodd" clip-rule="evenodd" d="M207.552 1.25997C206.855 1.79995 206.331 11.8797 206.331 23.5794V44.8188L200.752 43.0188C186.978 39.0589 172.855 43.1988 163.44 54.3585L158.035 60.8383L155.594 55.0785C152.63 48.4187 140.425 41.3989 131.358 41.3989C128.046 41.3989 122.641 43.0188 119.676 44.9988C114.969 47.8787 113.923 48.0587 113.923 45.8988C113.923 43.7388 111.482 43.1988 103.461 43.1988H93V74.698V106.197H103.461H113.923V85.8577C113.923 68.5781 114.446 64.9782 117.061 62.6383C122.466 57.5984 126.999 57.2384 131.881 61.3783C136.415 64.9782 136.589 65.5182 136.589 85.6777V106.197H147.05H157.512V97.1973V88.1976L163.789 95.2174C171.983 104.757 182.619 108.897 194.65 107.277C199.532 106.557 208.947 106.017 215.398 106.197L226.906 106.377L227.603 86.5776C228.126 69.4781 228.649 66.2382 231.613 63.1783C237.716 57.2384 242.423 56.8784 247.305 61.9183C251.49 66.2382 251.664 67.4982 251.664 86.3976V106.197H262.125H272.587V82.7977C272.587 55.0785 271.018 50.0386 259.859 44.8188C250.444 40.4989 241.726 40.4989 234.577 44.9988C231.439 46.9787 228.475 48.5987 228.126 48.5987C227.603 48.5987 227.254 37.619 227.254 24.2993V0H218.013C212.783 0 208.075 0.539985 207.552 1.25997ZM206.331 75.0579C206.157 88.1976 205.634 93.5974 204.588 91.6175C203.367 89.2776 201.101 88.9176 195.173 89.4576C188.547 90.3575 186.804 89.8175 182.968 85.8577C179.829 82.6177 178.434 79.1978 178.434 74.698C178.434 70.1981 179.829 66.7782 182.968 63.5383C186.804 59.5784 188.547 59.0384 195.347 59.9384C200.926 60.4784 203.367 60.1184 204.065 58.3184C205.983 53.2785 206.331 56.3385 206.331 75.0579ZM309.831 7.1999C306.344 10.0798 305.123 12.5997 305.123 17.0996C305.123 29.1593 318.897 34.1992 326.569 24.8394C335.81 13.6797 321.164 -1.97985 309.831 7.1999ZM67.8245 12.9596C69.045 10.0797 71.6604 6.8398 73.7526 5.75983C78.809 3.2399 79.332 3.2399 84.3884 5.57984C94.1523 10.2597 93.6292 24.4793 83.6909 28.7992C78.6346 30.9591 72.5321 29.1592 69.2194 24.4793C68.1732 23.2194 67.9989 23.7593 68.6963 25.7393C69.2194 27.5392 69.7424 32.2191 69.7424 36.179V43.1988H79.332H88.9216V74.6979V106.197H78.4603H67.9989V77.7579V49.4986L64.3374 55.2585C59.1067 63.7182 48.2966 68.3981 34.3482 68.3981H22.6663V87.2976V106.197H11.3331H0V55.7985V5.39984H23.3637C48.471 5.39984 54.0504 6.65981 61.199 13.6796L65.7323 18.1795L67.8245 12.9596ZM45.1582 41.3989C47.4249 34.1991 45.8557 29.1592 39.9276 26.0993C37.3122 24.6593 32.2559 23.3994 28.7688 23.3994H22.6663V36.899V50.3986H27.7226C36.4404 50.3986 43.2403 46.9787 45.1582 41.3989ZM334.764 31.4991V43.1988H320.815H306.867V74.6979V106.197H317.328H327.789V82.7977C327.789 60.6583 327.964 59.3983 331.277 59.3983C334.589 59.3983 334.764 60.6583 334.764 75.9579C334.764 100.257 340.343 108.177 357.081 107.997C360.568 107.817 365.102 106.917 367.194 105.657C370.681 103.497 370.855 103.317 368.066 95.3974C365.799 88.7375 364.579 87.2976 360.917 87.2976C356.733 87.2976 356.558 86.9376 356.035 73.258L355.512 59.3983H361.789C364.553 59.3983 366.065 59.3983 366.892 58.6456C367.891 57.7366 367.891 55.7296 367.891 51.2986C367.891 46.8676 367.891 44.8606 366.892 43.9515C366.065 43.1988 364.553 43.1988 361.789 43.1988H355.686V31.4991V19.7994H345.225H334.764V31.4991ZM275.483 95.0374C275.483 89.6375 280.016 82.9777 284.898 80.9978C289.954 78.8378 294.836 80.4578 299.544 85.6777C304.077 90.8975 304.251 93.7774 300.764 100.617C297.975 106.197 295.011 107.997 288.385 107.997C282.98 107.997 275.483 100.437 275.483 95.0374Z" fill="url(#paint0_linear_2_12)"/>
<defs>
<linearGradient id="paint0_linear_2_12" x1="185" y1="0" x2="185" y2="108" gradientUnits="userSpaceOnUse">
<stop stop-color="#EABFFF"/>
<stop offset="1" stop-color="#98F9FF"/>
</linearGradient>
</defs>
</svg>
